<?xml version="1.0" encoding="utf-8"?>
<!-- Generator: Adobe Illustrator 16.0.0, SVG Export Plug-In . SVG Version: 6.00 Build 0)  -->
<!DOCTYPE svg PUBLIC "-//W3C//DTD SVG 1.1//EN" "http://www.w3.org/Graphics/SVG/1.1/DTD/svg11.dtd">
<svg version="1.1" xmlns="http://www.w3.org/2000/svg" xmlns:xlink="http://www.w3.org/1999/xlink" x="0px" y="0px" width="286.3px"
	 height="286.3px" viewBox="0 0 286.3 286.3" enable-background="new 0 0 286.3 286.3" xml:space="preserve">
<g id="Ebene_2">
</g>
<g id="Ebene_1">
	<g>
		<path fill="#255FAA" d="M92.122,253.118c-7.117-0.005-15.866-5.044-19.441-11.197L21.866,154.46
			c-3.575-6.154-3.568-16.22,0.016-22.369l50.936-87.392c3.584-6.149,12.339-11.176,19.457-11.171l101.904,0.069
			c7.117,0.005,15.866,5.044,19.441,11.198l50.814,87.46c3.575,6.154,3.568,16.22-0.016,22.369l-50.936,87.391
			c-3.584,6.148-12.34,11.176-19.457,11.171L92.122,253.118z"/>
	</g>
	<g>
		<path fill="#FFFFFF" d="M153.809,146.947l-16.772-17.829c6.053-7.382,9.686-16.789,9.686-27.037
			c0-23.706-19.404-42.923-43.339-42.923c-23.936,0-43.339,19.217-43.339,42.923c0,23.705,19.403,42.923,43.339,42.923
			c10.165,0,19.505-3.477,26.896-9.28l16.647,17.698L153.809,146.947z M103.384,136.189c-19.021,0-34.439-15.271-34.439-34.109
			c0-18.837,15.418-34.108,34.439-34.108c19.02,0,34.44,15.271,34.44,34.108C137.824,120.918,122.404,136.189,103.384,136.189z"/>
		<rect x="97.922" y="89.841" fill="#FFFFFF" width="7.7" height="36.433"/>
		<polygon fill="#FFFFFF" points="121.983,117.613 114.283,123.112 114.283,106.289 121.983,106.289 		"/>
		<polygon fill="#FFFFFF" points="88.849,123.112 81.562,115.551 81.562,100.29 88.849,100.29 		"/>
	</g>
	<path fill="#FFFFFF" d="M137.678,169.67v20.94h78.783v-20.94H137.678z M201.805,184.591c-2.603,0-4.713-1.992-4.713-4.451
		c0-2.458,2.11-4.45,4.713-4.45c2.601,0,4.71,1.992,4.71,4.45C206.515,182.599,204.405,184.591,201.805,184.591z"/>
	<path fill="#FFFFFF" d="M137.678,199.246v20.94h78.783v-20.94H137.678z M201.805,214.167c-2.603,0-4.713-1.992-4.713-4.45
		s2.11-4.45,4.713-4.45c2.601,0,4.71,1.992,4.71,4.45S204.405,214.167,201.805,214.167z"/>
	<g>
		<g>
			<g>
				<path fill="none" stroke="#FFFFFF" stroke-width="6.5878" stroke-miterlimit="10" d="M203.979,134.606
					c0.134-31.29,0.141-29.179-28.627-28.036"/>
				<g>
					<polygon fill="#FFFFFF" points="177.977,96.609 161.171,106.9 178.484,116.312 					"/>
				</g>
			</g>
		</g>
	</g>
	<g>
		<g>
			<g>
				<path fill="none" stroke="#FFFFFF" stroke-width="6.6989" stroke-miterlimit="10" d="M115.606,199.462
					c-32.394,1.92-30.33,1.814-29.487-26.562"/>
				<g>
					<polygon fill="#FFFFFF" points="96.059,175.979 86.299,158.477 76.019,175.677 					"/>
				</g>
			</g>
		</g>
	</g>
</g>
</svg>
