<?xml version="1.0" encoding="utf-8"?>
<!-- Generator: Adobe Illustrator 16.0.0, SVG Export Plug-In . SVG Version: 6.00 Build 0)  -->
<!DOCTYPE svg PUBLIC "-//W3C//DTD SVG 1.1//EN" "http://www.w3.org/Graphics/SVG/1.1/DTD/svg11.dtd">
<svg version="1.1" xmlns="http://www.w3.org/2000/svg" xmlns:xlink="http://www.w3.org/1999/xlink" x="0px" y="0px" width="286.3px"
	 height="286.3px" viewBox="0 0 286.3 286.3" enable-background="new 0 0 286.3 286.3" xml:space="preserve">
<g id="Ebene_2">
</g>
<g id="Ebene_1">
	<g>
		<path fill="#255FAA" d="M92.121,252.91c-7.117-0.004-15.865-5.043-19.44-11.197l-50.815-87.461
			c-3.575-6.154-3.568-16.219,0.016-22.368l50.936-87.393c3.584-6.149,12.339-11.176,19.456-11.171l101.904,0.069
			c7.117,0.005,15.866,5.044,19.441,11.198l50.814,87.46c3.575,6.154,3.568,16.219-0.016,22.37l-50.936,87.391
			c-3.584,6.148-12.34,11.176-19.457,11.17L92.121,252.91z"/>
	</g>
	<g>
		<path fill="#FFFFFF" d="M218.758,183.247l-16.25-17.274c5.865-7.152,9.385-16.267,9.385-26.195
			c0-22.968-18.801-41.587-41.99-41.587c-23.191,0-41.991,18.62-41.991,41.587c0,22.967,18.799,41.588,41.991,41.588
			c9.85,0,18.898-3.369,26.059-8.992l16.131,17.147L218.758,183.247z M169.902,172.824c-18.428,0-33.367-14.796-33.367-33.048
			c0-18.251,14.939-33.047,33.367-33.047s33.369,14.796,33.369,33.047C203.271,158.028,188.33,172.824,169.902,172.824z"/>
		<rect x="164.609" y="127.917" fill="#FFFFFF" width="7.461" height="35.3"/>
		<polygon fill="#FFFFFF" points="187.922,154.825 180.463,160.153 180.463,143.854 187.922,143.854 		"/>
		<polygon fill="#FFFFFF" points="155.82,160.153 148.76,152.828 148.76,138.042 155.82,138.042 		"/>
	</g>
	<path fill="#FFFFFF" d="M122,123.623c0,2.372-1.923,4.294-4.294,4.294H93.628c-2.372,0-4.294-1.923-4.294-4.294l0,0
		c0-2.372,1.923-4.294,4.294-4.294h24.078C120.077,119.329,122,121.251,122,123.623L122,123.623z"/>
	<path fill="#FFFFFF" d="M122,139.851c0,2.209-1.791,4-4,4H70c-2.209,0-4-1.791-4-4l0,0c0-2.209,1.791-4,4-4h48
		C120.209,135.851,122,137.642,122,139.851L122,139.851z"/>
	<path fill="#FFFFFF" d="M122,156.078c0,2.251-1.824,4.075-4.075,4.075H51.408c-2.25,0-4.075-1.824-4.075-4.075l0,0
		c0-2.25,1.824-4.074,4.075-4.074h66.517C120.176,152.004,122,153.828,122,156.078L122,156.078z"/>
</g>
</svg>
